<?xml version="1.0" encoding="UTF-8" standalone="no"?>
<!-- Generator: Adobe Illustrator 27.5.0, SVG Export Plug-In . SVG Version: 6.00 Build 0)  -->

<svg
   version="1.1"
   id="Layer_1"
   x="0px"
   y="0px"
   viewBox="0 0 893.07098 280.11499"
   xml:space="preserve"
   sodipodi:docname="boton_enter.svg"
   width="893.07098"
   height="280.11499"
   inkscape:export-filename="boton_enter.png"
   inkscape:export-xdpi="32.248276"
   inkscape:export-ydpi="32.248276"
   inkscape:version="1.3 (0e150ed6c4, 2023-07-21)"
   xmlns:inkscape="http://www.inkscape.org/namespaces/inkscape"
   xmlns:sodipodi="http://sodipodi.sourceforge.net/DTD/sodipodi-0.dtd"
   xmlns="http://www.w3.org/2000/svg"
   xmlns:svg="http://www.w3.org/2000/svg"><defs
   id="defs825"><rect
   x="2114.1304"
   y="309.78262"
   width="358.69565"
   height="40.760872"
   id="rect825" />&#10;	&#10;	&#10;	&#10;	&#10;</defs><sodipodi:namedview
   id="namedview825"
   pagecolor="#ffffff"
   bordercolor="#000000"
   borderopacity="0.25"
   inkscape:showpageshadow="2"
   inkscape:pageopacity="0.0"
   inkscape:pagecheckerboard="0"
   inkscape:deskcolor="#d1d1d1"
   inkscape:zoom="0.736"
   inkscape:cx="449.72826"
   inkscape:cy="26.494565"
   inkscape:window-width="1920"
   inkscape:window-height="1033"
   inkscape:window-x="1912"
   inkscape:window-y="16"
   inkscape:window-maximized="1"
   inkscape:current-layer="Layer_1" />&#10;&#10;&#10;<path
   style="fill:#181425"
   d="m 598.1457,27.38513 h -360 -113 c -63.513,0 -115,51.487 -115,115 v 0 c 0,63.513 51.487,115 115,115 h 473 v -38 l 76,-76 h 96 l 116,-116 z"
   id="path12" /><path
   style="fill:#ffff00"
   d="M 863.577,280.115 889.235,254.458 863.577,228.801 842.7,249.678 H 743.589 L 648.682,154.77 588,215.452 v 35.071 H 120 c -60.654,0 -110,-49.346 -110,-110 0,-60.654 49.346,-110 110,-110 h 748.929 l -106,106 H 669 v 10 h 98.071 l 126,-126 H 120 c -66.168,0 -120,53.831 -120,120 0,66.168 53.832,120 120,120 h 478 v -40.929 l 50.682,-50.682 90.765,90.766 H 843.14 Z m 0,-14.142 -11.516,-11.515 11.516,-11.515 11.516,11.515 z"
   id="path13" /><polygon
   style="fill:#00ffff"
   points="2635.951,160.679 2261.522,160.679 2194.486,227.714 2187.416,220.643 2257.38,150.679 2635.951,150.679 "
   id="polygon13"
   transform="translate(-1996.944,-150.679)" /><g
   id="g21"
   transform="translate(-1996.944,-150.679)">&#10;		&#10;		&#10;		&#10;		&#10;		&#10;		&#10;		&#10;		&#10;	<text
   xml:space="preserve"
   id="text825"
   style="font-style:normal;font-variant:normal;font-weight:normal;font-stretch:normal;font-size:96px;font-family:'Britannic Bold';-inkscape-font-specification:'Britannic Bold, ';white-space:pre;shape-inside:url(#rect825);fill:#00ff00;stroke-width:0.82" /><text
   xml:space="preserve"
   style="font-style:normal;font-variant:normal;font-weight:normal;font-stretch:normal;font-size:192px;font-family:'Britannic Bold';-inkscape-font-specification:'Britannic Bold, ';fill:#00ff00;stroke-width:0.82"
   x="2032.6088"
   y="364.80978"
   id="text826"><tspan
     sodipodi:role="line"
     id="tspan826"
     x="2032.6088"
     y="364.80978"
     style="font-style:normal;font-variant:normal;font-weight:normal;font-stretch:normal;font-size:192px;font-family:'Britannic Bold';-inkscape-font-specification:'Britannic Bold, ';fill:#00ff00">ENTER</tspan></text></g>&#10;&#10;&#10;&#10;&#10;&#10;&#10;&#10;&#10;&#10;&#10;</svg>
